<mxfile host="app.diagrams.net" modified="2021-01-05T17:54:32.772Z" agent="5.0 (X11; Linux x86_64) AppleWebKit/537.36 (KHTML, like Gecko) Chrome/87.0.4280.88 Safari/537.36" etag="w9P6HtUVYgutyUjIHPVi" version="14.1.8" type="github">
  <diagram id="ImBW31V8x73wGrtlTKoX" name="Page-1">
    <mxGraphModel dx="1021" dy="580" grid="1" gridSize="10" guides="1" tooltips="1" connect="1" arrows="1" fold="1" page="1" pageScale="1" pageWidth="4681" pageHeight="3300" math="0" shadow="0">
      <root>
        <mxCell id="0" />
        <mxCell id="1" parent="0" />
        <mxCell id="q2AAvGgdGorAU4NdcMrt-27" value="admin_accounts" style="whiteSpace=wrap;html=1;align=center;" vertex="1" parent="1">
          <mxGeometry x="420" y="590" width="100" height="40" as="geometry" />
        </mxCell>
        <mxCell id="q2AAvGgdGorAU4NdcMrt-29" value="userid" style="ellipse;whiteSpace=wrap;html=1;align=center;fontStyle=4;" vertex="1" parent="1">
          <mxGeometry x="280" y="510" width="100" height="40" as="geometry" />
        </mxCell>
        <mxCell id="q2AAvGgdGorAU4NdcMrt-30" value="" style="endArrow=none;html=1;rounded=0;exitX=1;exitY=0.5;exitDx=0;exitDy=0;entryX=0.5;entryY=0;entryDx=0;entryDy=0;" edge="1" parent="1" source="q2AAvGgdGorAU4NdcMrt-29" target="q2AAvGgdGorAU4NdcMrt-27">
          <mxGeometry relative="1" as="geometry">
            <mxPoint x="390" y="610" as="sourcePoint" />
            <mxPoint x="550" y="610" as="targetPoint" />
          </mxGeometry>
        </mxCell>
        <mxCell id="q2AAvGgdGorAU4NdcMrt-31" value="uname" style="ellipse;whiteSpace=wrap;html=1;align=center;" vertex="1" parent="1">
          <mxGeometry x="400" y="430" width="100" height="40" as="geometry" />
        </mxCell>
        <mxCell id="q2AAvGgdGorAU4NdcMrt-32" value="upassword" style="ellipse;whiteSpace=wrap;html=1;align=center;" vertex="1" parent="1">
          <mxGeometry x="520" y="490" width="100" height="40" as="geometry" />
        </mxCell>
        <mxCell id="q2AAvGgdGorAU4NdcMrt-33" value="" style="endArrow=none;html=1;rounded=0;exitX=0.5;exitY=1;exitDx=0;exitDy=0;entryX=0.5;entryY=0;entryDx=0;entryDy=0;" edge="1" parent="1" source="q2AAvGgdGorAU4NdcMrt-31" target="q2AAvGgdGorAU4NdcMrt-27">
          <mxGeometry relative="1" as="geometry">
            <mxPoint x="390" y="610" as="sourcePoint" />
            <mxPoint x="550" y="610" as="targetPoint" />
          </mxGeometry>
        </mxCell>
        <mxCell id="q2AAvGgdGorAU4NdcMrt-35" value="" style="endArrow=none;html=1;rounded=0;entryX=0.5;entryY=1;entryDx=0;entryDy=0;" edge="1" parent="1" target="q2AAvGgdGorAU4NdcMrt-32">
          <mxGeometry relative="1" as="geometry">
            <mxPoint x="470" y="590" as="sourcePoint" />
            <mxPoint x="550" y="610" as="targetPoint" />
          </mxGeometry>
        </mxCell>
        <mxCell id="q2AAvGgdGorAU4NdcMrt-36" value="tho_accounts" style="whiteSpace=wrap;html=1;align=center;" vertex="1" parent="1">
          <mxGeometry x="910" y="560" width="100" height="40" as="geometry" />
        </mxCell>
        <mxCell id="q2AAvGgdGorAU4NdcMrt-37" value="userid" style="ellipse;whiteSpace=wrap;html=1;align=center;fontStyle=4;" vertex="1" parent="1">
          <mxGeometry x="770" y="480" width="100" height="40" as="geometry" />
        </mxCell>
        <mxCell id="q2AAvGgdGorAU4NdcMrt-38" value="" style="endArrow=none;html=1;rounded=0;exitX=1;exitY=0.5;exitDx=0;exitDy=0;entryX=0.5;entryY=0;entryDx=0;entryDy=0;" edge="1" source="q2AAvGgdGorAU4NdcMrt-37" target="q2AAvGgdGorAU4NdcMrt-36" parent="1">
          <mxGeometry relative="1" as="geometry">
            <mxPoint x="880" y="580" as="sourcePoint" />
            <mxPoint x="1040" y="580" as="targetPoint" />
          </mxGeometry>
        </mxCell>
        <mxCell id="q2AAvGgdGorAU4NdcMrt-39" value="uname" style="ellipse;whiteSpace=wrap;html=1;align=center;" vertex="1" parent="1">
          <mxGeometry x="810" y="380" width="100" height="40" as="geometry" />
        </mxCell>
        <mxCell id="q2AAvGgdGorAU4NdcMrt-40" value="upassword" style="ellipse;whiteSpace=wrap;html=1;align=center;" vertex="1" parent="1">
          <mxGeometry x="970" y="390" width="100" height="40" as="geometry" />
        </mxCell>
        <mxCell id="q2AAvGgdGorAU4NdcMrt-41" value="" style="endArrow=none;html=1;rounded=0;exitX=0.5;exitY=1;exitDx=0;exitDy=0;entryX=0.5;entryY=0;entryDx=0;entryDy=0;" edge="1" source="q2AAvGgdGorAU4NdcMrt-39" target="q2AAvGgdGorAU4NdcMrt-36" parent="1">
          <mxGeometry relative="1" as="geometry">
            <mxPoint x="880" y="580" as="sourcePoint" />
            <mxPoint x="1040" y="580" as="targetPoint" />
          </mxGeometry>
        </mxCell>
        <mxCell id="q2AAvGgdGorAU4NdcMrt-42" value="" style="endArrow=none;html=1;rounded=0;entryX=0.5;entryY=1;entryDx=0;entryDy=0;" edge="1" target="q2AAvGgdGorAU4NdcMrt-40" parent="1">
          <mxGeometry relative="1" as="geometry">
            <mxPoint x="960" y="560.0000000000001" as="sourcePoint" />
            <mxPoint x="1040" y="580" as="targetPoint" />
          </mxGeometry>
        </mxCell>
        <mxCell id="q2AAvGgdGorAU4NdcMrt-43" value="upassword" style="ellipse;whiteSpace=wrap;html=1;align=center;" vertex="1" parent="1">
          <mxGeometry x="1100" y="420" width="100" height="40" as="geometry" />
        </mxCell>
        <mxCell id="q2AAvGgdGorAU4NdcMrt-47" value="" style="endArrow=none;html=1;rounded=0;entryX=0.5;entryY=1;entryDx=0;entryDy=0;exitX=0.5;exitY=0;exitDx=0;exitDy=0;" edge="1" parent="1" source="q2AAvGgdGorAU4NdcMrt-36" target="q2AAvGgdGorAU4NdcMrt-43">
          <mxGeometry relative="1" as="geometry">
            <mxPoint x="860" y="570" as="sourcePoint" />
            <mxPoint x="1020" y="570" as="targetPoint" />
          </mxGeometry>
        </mxCell>
      </root>
    </mxGraphModel>
  </diagram>
</mxfile>
